<svg width="53" height="41" viewBox="0 0 53 41" fill="none" xmlns="http://www.w3.org/2000/svg">
<path d="M43.5447 3.60214C42.2416 1.91313 40.8883 0.969261 39.485 0.770549C37.9813 0.571843 36.7283 0.869905 35.7259 1.66473C34.6233 2.36022 34.0218 3.45311 33.9216 4.94342C33.7211 6.33438 34.3226 7.87437 35.7259 9.5634C37.7307 12.0472 39.1341 14.5311 39.936 17.015C40.6377 19.4988 40.9886 21.7343 40.9886 23.7214L41.59 18.8033C38.0816 18.8033 35.2748 19.7969 33.1698 21.784C30.9645 23.771 29.8619 26.4536 29.8619 29.8316C29.8619 33.011 30.8643 35.6439 32.8691 37.7303C34.8739 39.7174 37.5804 40.7109 40.9886 40.7109C44.497 40.7109 47.2536 39.5187 49.2584 37.1342C51.2632 34.7497 52.2656 31.4213 52.2656 27.1491C52.2656 24.7646 52.0651 22.3304 51.6642 19.8466C51.163 17.2633 50.2608 14.6305 48.9577 11.9479C47.6546 9.26534 45.8502 6.48342 43.5447 3.60214ZM14.2243 3.60214C12.9212 1.91313 11.568 0.969261 10.1646 0.770549C8.66097 0.571843 7.40797 0.869905 6.40556 1.66473C5.30291 2.36022 4.70147 3.45311 4.60123 4.94342C4.40075 6.33438 5.00219 7.87437 6.40556 9.5634C8.41037 12.0472 9.81374 14.5311 10.6157 17.015C11.3173 19.4988 11.6682 21.7343 11.6682 23.7214L12.2696 18.8033C8.76122 18.8033 5.95448 19.7969 3.84943 21.784C1.64414 23.771 0.541489 26.4536 0.541489 29.8316C0.541489 33.011 1.5439 35.6439 3.54871 37.7303C5.55352 39.7174 8.26001 40.7109 11.6682 40.7109C15.1766 40.7109 17.9332 39.5187 19.938 37.1342C21.9429 34.7497 22.9453 31.4213 22.9453 27.1491C22.9453 24.7646 22.7448 22.3304 22.3438 19.8466C21.8426 17.2633 20.9404 14.6305 19.6373 11.9479C18.3342 9.26534 16.5299 6.48342 14.2243 3.60214Z" fill="#333333"/>
</svg>
